<svg viewBox="0 0 24 24" xmlns="http://www.w3.org/2000/svg" xmlns:xlink="http://www.w3.org/1999/xlink" width="24.000000" height="24.000000" fill="none" customFrame="#000000">
	<defs>
		<clipPath id="clipPath_0">
			<rect width="24.000000" height="24.000000" x="0.000000" y="0.000000" fill="rgb(255,255,255)" />
		</clipPath>
	</defs>
	<rect id="ic_albums" width="24.000000" height="24.000000" x="0.000000" y="0.000000" />
	<g id="symbol_相册_未选中" customFrame="url(#clipPath_0)">
		<rect id="symbol_相册_未选中" width="24.000000" height="24.000000" x="0.000000" y="0.000000" />
		<g id="编组 2">
			<path id="路径" d="M4.21999 6.60999C3.72666 6.60999 3.27332 6.73332 2.85999 6.97999C2.43999 7.22665 2.10666 7.56332 1.85999 7.98999C1.61332 8.41665 1.48999 8.87665 1.48999 9.36999L1.48999 18.25C1.48999 18.7433 1.61332 19.2 1.85999 19.62C2.10666 20.0333 2.43999 20.3633 2.85999 20.61C3.27332 20.8633 3.72666 20.99 4.21999 20.99L16.27 20.99C16.77 20.99 17.2267 20.8633 17.64 20.61C18.0533 20.3633 18.3867 20.0333 18.64 19.62C18.8867 19.2 19.01 18.7433 19.01 18.25L19.01 9.36999C19.01 8.87665 18.8867 8.41665 18.64 7.98999C18.3867 7.56332 18.0533 7.22665 17.64 6.97999C17.2267 6.73332 16.77 6.60999 16.27 6.60999L4.21999 6.60999Z" fill="rgb(0,0,0)" fill-opacity="0.200000003" fill-rule="evenodd" />
			<path id="路径" d="M7.98994 3.01001C7.22327 3.01001 6.53327 3.22334 5.91994 3.65001C5.29994 4.07001 4.8466 4.62334 4.55994 5.31001L17.2099 5.31001C17.7699 5.31001 18.2866 5.45001 18.7599 5.73001C19.2266 6.01001 19.5999 6.38668 19.8799 6.86001C20.1599 7.33334 20.2999 7.85001 20.2999 8.41001L20.2999 17.63C20.9599 17.3367 21.4933 16.8833 21.8999 16.27C22.3066 15.6567 22.5099 14.98 22.5099 14.24L22.5099 6.73001C22.5099 6.05668 22.3433 5.43668 22.0099 4.87001C21.6699 4.30334 21.2166 3.85001 20.6499 3.51001C20.0833 3.17668 19.4633 3.01001 18.7899 3.01001L7.98994 3.01001Z" fill="rgb(0,0,0)" fill-opacity="0.400000006" fill-rule="evenodd" />
		</g>
	</g>
</svg>
