<svg viewBox="0 0 24 24" xmlns="http://www.w3.org/2000/svg" xmlns:xlink="http://www.w3.org/1999/xlink" width="24.000000" height="24.000000" fill="none" customFrame="#000000">
	<rect id="symbol_照片" width="24.000000" height="24.000000" x="0.000000" y="0.000000" />
	<path id="路径" d="M5.94 1.98999C5.23333 1.98999 4.57667 2.16666 3.97 2.51999C3.36333 2.87332 2.88333 3.35332 2.53 3.95999C2.17667 4.56666 2 5.22332 2 5.92999L2 18.05C2 18.77 2.17667 19.4333 2.53 20.04C2.88333 20.6467 3.36333 21.1267 3.97 21.48C4.57667 21.8333 5.23333 22.01 5.94 22.01L18.06 22.01C18.78 22.01 19.44 21.8333 20.04 21.48C20.64 21.1267 21.1167 20.6467 21.47 20.04C21.8167 19.4333 21.99 18.77 21.99 18.05L21.99 5.92999C21.99 5.22332 21.8167 4.56666 21.47 3.95999C21.1167 3.35332 20.64 2.87332 20.04 2.51999C19.44 2.16666 18.7867 1.98999 18.08 1.98999L5.94 1.98999Z" fill="rgb(10,89,247)" fill-rule="evenodd" />
	<path id="路径" d="M5.91001 20.5C5.29001 20.5 4.75001 20.2866 4.29001 19.86C3.83668 19.4333 3.57668 18.91 3.51001 18.29L13.57 10.97C13.89 10.7433 14.2367 10.5933 14.61 10.52C14.99 10.4533 15.3633 10.47 15.73 10.57C16.0967 10.6766 16.4233 10.8566 16.71 11.11L20.51 14.35L20.51 18.05C20.51 18.7233 20.2733 19.3 19.8 19.78C19.3267 20.26 18.7533 20.5 18.08 20.5L5.91001 20.5Z" fill="rgb(255,255,255)" fill-opacity="0.800000012" fill-rule="evenodd" />
	<path id="路径" d="M8.51 7.25C8.99 7.25 9.4 7.42 9.74 7.76C10.0867 8.10667 10.26 8.52 10.26 9C10.26 9.48 10.0867 9.89333 9.74 10.24C9.4 10.58 8.99 10.75 8.51 10.75C8.03 10.75 7.61667 10.58 7.27 10.24C6.92333 9.89333 6.75 9.48 6.75 9C6.75 8.52 6.92333 8.10667 7.27 7.76C7.61667 7.42 8.03 7.25 8.51 7.25Z" fill="rgb(255,255,255)" fill-opacity="0.800000012" fill-rule="evenodd" />
</svg>
