<svg viewBox="0 0 24 24" xmlns="http://www.w3.org/2000/svg" xmlns:xlink="http://www.w3.org/1999/xlink" width="24.000000" height="24.000000" fill="none" customFrame="#000000">
	<rect id="symbol_时刻" width="24.000000" height="24.000000" x="0.000000" y="0.000000" />
	<g id="编组">
		<path id="路径" d="M19.99 3.12006C20.1967 3.12006 20.4767 3.15339 20.83 3.22006C20.5767 2.72006 20.21 2.32006 19.73 2.02006C19.25 1.71339 18.73 1.56006 18.17 1.56006L5.83004 1.56006C5.27004 1.56006 4.75004 1.71339 4.27004 2.02006C3.79004 2.32006 3.42338 2.72006 3.17004 3.22006C3.52338 3.15339 3.80338 3.12006 4.01004 3.12006L19.99 3.12006Z" fill="rgb(0,0,0)" fill-opacity="0.200000003" fill-rule="evenodd" />
		<path id="路径" d="M3.65001 4.43994C2.80334 4.43994 2.15001 4.66661 1.69001 5.11994C1.23668 5.57994 1.01001 6.23327 1.01001 7.07994L1.01001 19.7999C1.01001 20.6466 1.23668 21.2999 1.69001 21.7599C2.15001 22.2133 2.80334 22.4399 3.65001 22.4399L20.35 22.4399C21.1967 22.4399 21.85 22.2133 22.31 21.7599C22.7633 21.2999 22.99 20.6466 22.99 19.7999L22.99 7.07994C22.99 6.23327 22.7633 5.57994 22.31 5.11994C21.85 4.66661 21.1967 4.43994 20.35 4.43994L3.65001 4.43994Z" fill="rgb(0,0,0)" fill-opacity="0.200000003" fill-rule="evenodd" />
		<path id="路径" d="M11.95 10.75C12.2234 10.4633 12.5334 10.24 12.88 10.08C13.22 9.91997 13.5734 9.83997 13.94 9.83997C14.4534 9.83997 14.9234 9.9633 15.35 10.21C15.77 10.4566 16.11 10.7933 16.37 11.22C16.6234 11.6466 16.75 12.1233 16.75 12.65C16.75 12.9833 16.7134 13.2666 16.64 13.5C16.5734 13.7333 16.45 13.9933 16.27 14.28C15.9967 14.76 15.5667 15.3166 14.98 15.95C14.3867 16.5833 13.7934 17.13 13.2 17.59C12.6067 18.0566 12.19 18.29 11.95 18.29C11.6967 18.29 11.23 18.02 10.55 17.48C9.87002 16.9466 9.21002 16.32 8.57002 15.6C7.93002 14.88 7.52002 14.2633 7.34002 13.75C7.21336 13.4166 7.15002 13.05 7.15002 12.65C7.15002 11.85 7.42336 11.18 7.97002 10.64C8.51003 10.1066 9.17336 9.83997 9.96002 9.83997C10.3267 9.83997 10.6867 9.91997 11.04 10.08C11.3934 10.24 11.6967 10.4633 11.95 10.75Z" fill="rgb(0,0,0)" fill-opacity="0.250980407" fill-rule="evenodd" />
	</g>
</svg>
